Normalized EMG Linear Envelopes
nRows=65
nColumns=17

endheader
time	        VM	        VL	        RF	       GRA	        TA	   ADDLONG	   SEMIMEM	      BFLH	        GM	        GL	       TFL	   GLUTMAX	   GLUTMED	      PIRI	    OBTINT	        QF	
2.12	  0.759182	  0.373257	  0.176627	  0.174557	  0.239274	  0.155561	  0.725585	  0.657460	  0.627010	  0.578540	  0.040148	  0.645175	  0.601190	  0.075406	  0.281058	  0.822531	
2.1205	  0.763868	  0.375428	  0.177991	  0.173907	  0.237241	  0.155743	  0.723535	  0.657872	  0.629784	  0.584774	  0.040458	  0.649519	  0.604774	  0.076815	  0.279310	  0.826117	
2.121	  0.768444	  0.377551	  0.179343	  0.173270	  0.235205	  0.155915	  0.721509	  0.658293	  0.632513	  0.591045	  0.040767	  0.653852	  0.608333	  0.078258	  0.277570	  0.829695	
2.1215	  0.772911	  0.379628	  0.180681	  0.172647	  0.233167	  0.156076	  0.719509	  0.658725	  0.635195	  0.597353	  0.041076	  0.658173	  0.611867	  0.079736	  0.275841	  0.833263	
2.122	  0.777266	  0.381657	  0.182006	  0.172037	  0.231128	  0.156228	  0.717535	  0.659169	  0.637830	  0.603697	  0.041383	  0.662481	  0.615374	  0.081248	  0.274125	  0.836819	
2.1225	  0.781510	  0.383639	  0.183317	  0.171440	  0.229090	  0.156368	  0.715590	  0.659624	  0.640416	  0.610077	  0.041689	  0.666774	  0.618855	  0.082794	  0.272421	  0.840363	
2.123	  0.785643	  0.385573	  0.184614	  0.170855	  0.227053	  0.156498	  0.713673	  0.660091	  0.642952	  0.616490	  0.041994	  0.671050	  0.622309	  0.084374	  0.270733	  0.843892	
2.1235	  0.789663	  0.387459	  0.185896	  0.170282	  0.225019	  0.156616	  0.711786	  0.660571	  0.645439	  0.622937	  0.042297	  0.675307	  0.625736	  0.085987	  0.269060	  0.847404	
2.124	  0.793570	  0.389298	  0.187164	  0.169721	  0.222988	  0.156724	  0.709930	  0.661064	  0.647873	  0.629415	  0.042598	  0.679543	  0.629135	  0.087633	  0.267405	  0.850897	
2.1245	  0.797365	  0.391089	  0.188417	  0.169173	  0.220962	  0.156821	  0.708105	  0.661570	  0.650255	  0.635923	  0.042897	  0.683756	  0.632506	  0.089312	  0.265769	  0.854369	
2.125	  0.801046	  0.392833	  0.189655	  0.168636	  0.218941	  0.156906	  0.706311	  0.662089	  0.652583	  0.642460	  0.043194	  0.687945	  0.635851	  0.091024	  0.264153	  0.857818	
2.1255	  0.804615	  0.394529	  0.190877	  0.168111	  0.216927	  0.156981	  0.704550	  0.662622	  0.654855	  0.649024	  0.043489	  0.692106	  0.639168	  0.092768	  0.262558	  0.861240	
2.126	  0.808069	  0.396179	  0.192085	  0.167598	  0.214920	  0.157044	  0.702820	  0.663166	  0.657071	  0.655613	  0.043782	  0.696238	  0.642457	  0.094545	  0.260985	  0.864634	
2.1265	  0.811411	  0.397780	  0.193276	  0.167095	  0.212921	  0.157096	  0.701123	  0.663723	  0.659228	  0.662225	  0.044072	  0.700339	  0.645719	  0.096353	  0.259436	  0.867996	
2.127	  0.814638	  0.399335	  0.194452	  0.166604	  0.210932	  0.157137	  0.699457	  0.664291	  0.661326	  0.668857	  0.044359	  0.704407	  0.648954	  0.098193	  0.257910	  0.871325	
2.1275	  0.817751	  0.400842	  0.195613	  0.166125	  0.208952	  0.157167	  0.697823	  0.664870	  0.663363	  0.675509	  0.044644	  0.708442	  0.652160	  0.100064	  0.256411	  0.874617	
2.128	  0.820749	  0.402302	  0.196757	  0.165656	  0.206983	  0.157186	  0.696219	  0.665459	  0.665339	  0.682176	  0.044925	  0.712441	  0.655337	  0.101966	  0.254937	  0.877870	
2.1285	  0.823631	  0.403715	  0.197885	  0.165199	  0.205026	  0.157195	  0.694646	  0.666057	  0.667253	  0.688858	  0.045203	  0.716402	  0.658485	  0.103899	  0.253490	  0.881082	
2.129	  0.826398	  0.405081	  0.198998	  0.164752	  0.203080	  0.157192	  0.693102	  0.666662	  0.669102	  0.695551	  0.045478	  0.720323	  0.661602	  0.105862	  0.252071	  0.884251	
2.1295	  0.829049	  0.406401	  0.200094	  0.164317	  0.201147	  0.157180	  0.691586	  0.667273	  0.670888	  0.702252	  0.045749	  0.724203	  0.664688	  0.107855	  0.250681	  0.887375	
2.13	  0.831585	  0.407674	  0.201174	  0.163892	  0.199227	  0.157158	  0.690098	  0.667889	  0.672608	  0.708960	  0.046017	  0.728040	  0.667741	  0.109878	  0.249320	  0.890451	
2.1305	  0.834005	  0.408902	  0.202238	  0.163477	  0.197322	  0.157125	  0.688636	  0.668509	  0.674263	  0.715671	  0.046281	  0.731830	  0.670761	  0.111930	  0.247989	  0.893477	
2.131	  0.836309	  0.410085	  0.203285	  0.163073	  0.195431	  0.157083	  0.687200	  0.669130	  0.675852	  0.722383	  0.046541	  0.735573	  0.673747	  0.114011	  0.246688	  0.896451	
2.1315	  0.838499	  0.411222	  0.204316	  0.162680	  0.193555	  0.157032	  0.685788	  0.669753	  0.677374	  0.729091	  0.046796	  0.739265	  0.676696	  0.116121	  0.245418	  0.899369	
2.132	  0.840573	  0.412314	  0.205329	  0.162296	  0.191695	  0.156971	  0.684400	  0.670374	  0.678829	  0.735795	  0.047048	  0.742904	  0.679607	  0.118258	  0.244179	  0.902228	
2.1325	  0.842534	  0.413361	  0.206326	  0.161923	  0.189852	  0.156901	  0.683033	  0.670993	  0.680216	  0.742490	  0.047294	  0.746487	  0.682479	  0.120424	  0.242971	  0.905026	
2.133	  0.844379	  0.414365	  0.207305	  0.161560	  0.188026	  0.156822	  0.681686	  0.671609	  0.681535	  0.749173	  0.047536	  0.750011	  0.685309	  0.122616	  0.241796	  0.907758	
2.1335	  0.846111	  0.415324	  0.208267	  0.161206	  0.186217	  0.156735	  0.680359	  0.672220	  0.682785	  0.755841	  0.047774	  0.753474	  0.688095	  0.124835	  0.240652	  0.910424	
2.134	  0.847728	  0.416240	  0.209210	  0.160862	  0.184427	  0.156639	  0.679048	  0.672825	  0.683966	  0.762491	  0.048006	  0.756872	  0.690835	  0.127081	  0.239541	  0.913018	
2.1345	  0.849230	  0.417113	  0.210136	  0.160528	  0.182655	  0.156536	  0.677753	  0.673423	  0.685077	  0.769119	  0.048233	  0.760204	  0.693526	  0.129351	  0.238462	  0.915540	
2.135	  0.850618	  0.417944	  0.211043	  0.160203	  0.180902	  0.156424	  0.676471	  0.674013	  0.686119	  0.775723	  0.048455	  0.763467	  0.696166	  0.131647	  0.237415	  0.917986	
2.1355	  0.851891	  0.418731	  0.211931	  0.159887	  0.179169	  0.156305	  0.675201	  0.674593	  0.687090	  0.782297	  0.048671	  0.766658	  0.698753	  0.133967	  0.236401	  0.920355	
2.136	  0.853050	  0.419477	  0.212799	  0.159579	  0.177455	  0.156178	  0.673940	  0.675162	  0.687992	  0.788839	  0.048882	  0.769776	  0.701284	  0.136311	  0.235419	  0.922644	
2.1365	  0.854095	  0.420180	  0.213648	  0.159280	  0.175762	  0.156043	  0.672687	  0.675718	  0.688823	  0.795345	  0.049087	  0.772818	  0.703757	  0.138678	  0.234469	  0.924852	
2.137	  0.855025	  0.420842	  0.214478	  0.158988	  0.174089	  0.155901	  0.671438	  0.676259	  0.689585	  0.801812	  0.049287	  0.775782	  0.706168	  0.141067	  0.233550	  0.926977	
2.1375	  0.855840	  0.421461	  0.215286	  0.158704	  0.172436	  0.155752	  0.670191	  0.676784	  0.690278	  0.808237	  0.049480	  0.778665	  0.708516	  0.143479	  0.232663	  0.929016	
2.138	  0.856540	  0.422039	  0.216074	  0.158428	  0.170805	  0.155595	  0.668943	  0.677291	  0.690902	  0.814616	  0.049667	  0.781466	  0.710797	  0.145911	  0.231807	  0.930967	
2.1385	  0.857125	  0.422574	  0.216842	  0.158158	  0.169194	  0.155431	  0.667692	  0.677779	  0.691459	  0.820946	  0.049847	  0.784181	  0.713009	  0.148364	  0.230981	  0.932830	
2.139	  0.857593	  0.423068	  0.217587	  0.157894	  0.167605	  0.155259	  0.666433	  0.678245	  0.691951	  0.827223	  0.050022	  0.786810	  0.715150	  0.150837	  0.230186	  0.934601	
2.1395	  0.857945	  0.423521	  0.218312	  0.157637	  0.166037	  0.155081	  0.665165	  0.678689	  0.692379	  0.833444	  0.050189	  0.789350	  0.717215	  0.153329	  0.229420	  0.936279	
2.14	  0.858179	  0.423931	  0.219014	  0.157385	  0.164490	  0.154895	  0.663884	  0.679108	  0.692747	  0.839605	  0.050350	  0.791799	  0.719205	  0.155839	  0.228682	  0.937861	
2.1405	  0.858295	  0.424300	  0.219693	  0.157138	  0.162964	  0.154702	  0.662586	  0.679503	  0.693055	  0.845704	  0.050504	  0.794156	  0.721116	  0.158366	  0.227973	  0.939346	
2.141	  0.858292	  0.424627	  0.220350	  0.156896	  0.161460	  0.154501	  0.661269	  0.679870	  0.693308	  0.851736	  0.050651	  0.796417	  0.722946	  0.160910	  0.227290	  0.940731	
2.1415	  0.858170	  0.424911	  0.220983	  0.156658	  0.159977	  0.154294	  0.659929	  0.680208	  0.693508	  0.857698	  0.050791	  0.798582	  0.724695	  0.163469	  0.226635	  0.942015	
2.142	  0.857927	  0.425153	  0.221592	  0.156424	  0.158516	  0.154078	  0.658562	  0.680516	  0.693658	  0.863588	  0.050924	  0.800647	  0.726360	  0.166043	  0.226004	  0.943194	
2.1425	  0.857564	  0.425353	  0.222177	  0.156193	  0.157076	  0.153855	  0.657165	  0.680793	  0.693761	  0.869401	  0.051050	  0.802610	  0.727941	  0.168631	  0.225398	  0.944269	
2.143	  0.857080	  0.425509	  0.222739	  0.155965	  0.155657	  0.153625	  0.655736	  0.681038	  0.693820	  0.875133	  0.051168	  0.804468	  0.729434	  0.171231	  0.224816	  0.945235	
2.1435	  0.856475	  0.425621	  0.223276	  0.155740	  0.154260	  0.153387	  0.654271	  0.681249	  0.693837	  0.880782	  0.051278	  0.806220	  0.730841	  0.173842	  0.224256	  0.946094	
2.144	  0.855749	  0.425690	  0.223788	  0.155516	  0.152884	  0.153140	  0.652767	  0.681426	  0.693815	  0.886344	  0.051381	  0.807863	  0.732160	  0.176464	  0.223718	  0.946843	
2.1445	  0.854901	  0.425714	  0.224276	  0.155294	  0.151529	  0.152885	  0.651221	  0.681567	  0.693757	  0.891815	  0.051476	  0.809394	  0.733391	  0.179095	  0.223199	  0.947481	
2.145	  0.853931	  0.425694	  0.224738	  0.155074	  0.150194	  0.152621	  0.649630	  0.681671	  0.693665	  0.897192	  0.051563	  0.810811	  0.734533	  0.181734	  0.222700	  0.948009	
2.1455	  0.852838	  0.425628	  0.225175	  0.154854	  0.148881	  0.152348	  0.647991	  0.681737	  0.693543	  0.902470	  0.051642	  0.812112	  0.735586	  0.184379	  0.222218	  0.948427	
2.146	  0.851622	  0.425516	  0.225587	  0.154635	  0.147589	  0.152066	  0.646301	  0.681764	  0.693394	  0.907647	  0.051713	  0.813296	  0.736549	  0.187031	  0.221752	  0.948735	
2.1465	  0.850282	  0.425359	  0.225972	  0.154417	  0.146318	  0.151775	  0.644560	  0.681750	  0.693221	  0.912719	  0.051775	  0.814359	  0.737423	  0.189686	  0.221301	  0.948933	
2.147	  0.848818	  0.425155	  0.226331	  0.154198	  0.145067	  0.151473	  0.642766	  0.681694	  0.693027	  0.917680	  0.051829	  0.815299	  0.738205	  0.192345	  0.220864	  0.949022	
2.1475	  0.847228	  0.424904	  0.226663	  0.153979	  0.143836	  0.151162	  0.640918	  0.681594	  0.692814	  0.922528	  0.051875	  0.816115	  0.738897	  0.195005	  0.220438	  0.949003	
2.148	  0.845512	  0.424606	  0.226967	  0.153759	  0.142627	  0.150840	  0.639015	  0.681448	  0.692585	  0.927259	  0.051912	  0.816803	  0.739498	  0.197666	  0.220023	  0.948877	
2.1485	  0.843669	  0.424260	  0.227244	  0.153538	  0.141438	  0.150507	  0.637058	  0.681255	  0.692344	  0.931869	  0.051940	  0.817361	  0.740009	  0.200327	  0.219617	  0.948644	
2.149	  0.841699	  0.423866	  0.227492	  0.153315	  0.140269	  0.150163	  0.635045	  0.681014	  0.692092	  0.936354	  0.051960	  0.817789	  0.740428	  0.202985	  0.219218	  0.948305	
2.1495	  0.839603	  0.423424	  0.227711	  0.153090	  0.139121	  0.149807	  0.632978	  0.680723	  0.691832	  0.940710	  0.051971	  0.818084	  0.740756	  0.205639	  0.218824	  0.947864	
2.15	  0.837379	  0.422932	  0.227901	  0.152863	  0.137994	  0.149439	  0.630858	  0.680381	  0.691566	  0.944936	  0.051972	  0.818245	  0.740994	  0.208288	  0.218435	  0.947322	
2.1505	  0.835028	  0.422390	  0.228063	  0.152633	  0.136888	  0.149059	  0.628687	  0.679987	  0.691298	  0.949026	  0.051965	  0.818270	  0.741140	  0.210931	  0.218049	  0.946683	
2.151	  0.832549	  0.421800	  0.228195	  0.152399	  0.135802	  0.148666	  0.626466	  0.679541	  0.691029	  0.952977	  0.051947	  0.818160	  0.741195	  0.213566	  0.217664	  0.945951	
2.1515	  0.829942	  0.421160	  0.228298	  0.152161	  0.134737	  0.148260	  0.624197	  0.679042	  0.690761	  0.956785	  0.051921	  0.817913	  0.741160	  0.216192	  0.217280	  0.945130	
2.152	  0.827207	  0.420470	  0.228371	  0.151919	  0.133694	  0.147840	  0.621882	  0.678490	  0.690497	  0.960446	  0.051885	  0.817527	  0.741035	  0.218806	  0.216895	  0.944223	
